<?xml version="1.0" encoding="utf-8"?>
<!-- Generator: Adobe Illustrator 18.0.0, SVG Export Plug-In . SVG Version: 6.00 Build 0)  -->
<!DOCTYPE svg PUBLIC "-//W3C//DTD SVG 1.1//EN" "http://www.w3.org/Graphics/SVG/1.1/DTD/svg11.dtd">
<svg version="1.1" id="Calque_1" xmlns="http://www.w3.org/2000/svg" xmlns:xlink="http://www.w3.org/1999/xlink" x="0px" y="0px"
	 viewBox="0 0 100 100" enable-background="new 0 0 100 100" xml:space="preserve">
<path fill="#E20D18" d="M64.4,80.6c-2.7-3-5.3-5.9-7.9-8.8c-2-2.2-3.9-4.4-5.9-6.6c-0.5-0.5-0.4-0.7,0.2-1c0.9-0.4,1.8-0.9,2.6-1.5
	c0.9-0.7,1.6-0.5,2.5,0c6,3.3,12.1,6.5,18.1,9.7c0.7,0.4,1,0.3,1.6-0.2c3.8-3.3,7.6-6.6,11.4-9.9c1.7-1.5,3.8-1.7,5.6-0.7
	c3,1.7,3.4,5.7,0.7,8c-3.3,3-6.7,5.9-10.1,8.8c-0.5,0.4-0.9,0.9-1.5,1.3c-1.2,0.7-1.3,1.7-1,3c0.9,4.9,1.7,9.8,2.5,14.7
	c0.1,0.4,0,0.8-0.3,1.1c-0.4,0.5-0.7,1-1.1,1.6c-2.3-2.5-4.5-5.1-6.8-7.6c-1.1-1.3-2.3-2.5-3.4-3.8c-0.4-0.5-0.7-0.5-1.2-0.2
	C63.9,92,57,93.9,49.6,94.1C28.7,94.7,9.7,79.5,5.3,58.8C0.1,34.6,14.7,11.1,38.5,5.2c24.2-6,48.9,10,53.8,34.8
	c0.6,2.9,0.9,5.9,0.9,8.8c0,2.9-2,5-4.7,5c-2.8,0-4.9-2.1-4.9-5C83.3,32.6,72.6,18.8,57,14.8c-19.2-4.9-38.8,7.8-42.5,27.5
	c-3.6,19.4,8.8,37.9,28,41.4C50.1,85.2,57.4,84.1,64.4,80.6z"/>
</svg>
