<?xml version="1.0" encoding="iso-8859-1"?>
<!-- Generator: Adobe Illustrator 19.0.0, SVG Export Plug-In . SVG Version: 6.00 Build 0)  -->
<svg xmlns="http://www.w3.org/2000/svg" xmlns:xlink="http://www.w3.org/1999/xlink" version="1.1" id="Layer_1" x="0px" y="0px" viewBox="0 0 512 512" style="enable-background:new 0 0 512 512;" xml:space="preserve" width="512px" height="512px">
<g>
	<g>
		<g>
			<path d="M256,178.087c-12.294,0-22.261,9.966-22.261,22.261v89.043c0,12.294,9.966,22.261,22.261,22.261     c12.294,0,22.261-9.967,22.261-22.261v-89.043C278.261,188.053,268.294,178.087,256,178.087z" fill="#033334"/>
			<path d="M434.087,142.786l6.52,6.52c8.693,8.693,22.788,8.693,31.482,0c8.693-8.693,8.693-22.788,0-31.482l-44.522-44.522     c-8.693-8.693-22.788-8.693-31.482,0s-8.693,22.788,0,31.482l6.52,6.52l-5.725,5.725c-32.98-26.988-73.845-44.698-118.619-49.142     V44.522h22.261c12.294,0,22.261-9.966,22.261-22.261C322.783,9.967,312.816,0,300.522,0h-89.043     c-12.294,0-22.261,9.967-22.261,22.261c0,12.294,9.966,22.261,22.261,22.261h22.261v23.366     c-44.773,4.445-85.638,22.154-118.618,49.141l-5.725-5.725l6.519-6.519c8.693-8.693,8.693-22.788,0-31.482     s-22.788-8.693-31.482,0l-44.522,44.522c-8.693,8.693-8.693,22.788,0,31.482c8.693,8.693,22.788,8.693,31.482,0l6.521-6.521     l5.725,5.725c-31.402,38.374-50.248,87.423-50.248,140.881C33.391,412.344,133.047,512,256,512s222.609-99.656,222.609-222.609     c0-53.458-18.846-102.506-50.247-140.88L434.087,142.786z M278.261,466.096v-20.879c0-12.294-9.967-22.261-22.261-22.261     c-12.294,0-22.261,9.967-22.261,22.261v20.879c-80.562-10.044-144.4-73.882-154.444-154.444h20.879     c12.294,0,22.261-9.967,22.261-22.261s-9.966-22.261-22.261-22.261H79.295c5.014-40.216,23.43-76.264,50.643-103.535     c0.046-0.045,0.096-0.082,0.141-0.127c0.045-0.045,0.082-0.095,0.127-0.141c27.27-27.212,63.318-45.628,103.533-50.641v20.879     c0,12.294,9.966,22.261,22.261,22.261c12.294,0,22.261-9.967,22.261-22.261v-20.879c40.224,5.015,76.279,23.437,103.552,50.659     c0.039,0.039,0.071,0.083,0.11,0.122s0.083,0.072,0.122,0.11c27.222,27.272,45.645,63.328,50.659,103.552h-20.879     c-12.294,0-22.261,9.967-22.261,22.261s9.966,22.261,22.261,22.261h20.879C422.661,392.214,358.823,456.052,278.261,466.096z" fill="#033334"/>
		</g>
	</g>
</g>
<g>
</g>
<g>
</g>
<g>
</g>
<g>
</g>
<g>
</g>
<g>
</g>
<g>
</g>
<g>
</g>
<g>
</g>
<g>
</g>
<g>
</g>
<g>
</g>
<g>
</g>
<g>
</g>
<g>
</g>
</svg>
