<?xml version="1.0" encoding="iso-8859-1"?>
<!-- Generator: Adobe Illustrator 19.0.0, SVG Export Plug-In . SVG Version: 6.00 Build 0)  -->
<svg version="1.1" id="Layer_1" xmlns="http://www.w3.org/2000/svg" xmlns:xlink="http://www.w3.org/1999/xlink" x="0px" y="0px"
	 viewBox="0 0 330 330" style="enable-background:new 0 0 330 330;" xml:space="preserve">
<g>
	<g>
		<g>
			<path d="M219.223,165.366v-16.907c1.29,0.446,2.325,0.973,3.252,1.445c1.454,0.741,2.957,1.508,4.811,1.508
				c5.204,0,8.082-5.281,8.082-8.932c0-6.808-8.709-9.917-16.145-11.015v-0.544c0-3.806-3.408-7.022-7.443-7.022
				c-4.104,0-7.443,3.15-7.443,7.022v0.908c-12.197,2.373-19.328,10.592-19.328,22.654c0,15.246,10.453,20.348,19.328,23.602v21.643
				c-3.457-1.022-5.278-2.917-6.83-4.53c-1.474-1.533-3.309-3.441-6.223-3.441c-4.685,0-8.186,4.713-8.186,8.928
				c0,6.803,8.799,14.39,21.238,16.11v1.191c0,3.867,3.339,7.014,7.443,7.014c4.035,0,7.443-3.212,7.443-7.014v-2.054
				c11.395-3.104,18.057-12.148,18.057-24.913C237.28,174.533,226.619,168.365,219.223,165.366z M204.553,159.515
				c-2.185-1.482-2.855-3.114-2.855-5.665c0-1.18,0-3.472,2.855-4.961V159.515z M218.907,197.448v-11.929
				c1.058,1.528,1.576,3.462,1.576,6.139C220.483,194.161,219.985,196.059,218.907,197.448z"/>
			<path d="M292.28,0H37.723c-8.284,0-15,6.716-15,15v300c0,6.067,3.655,11.537,9.26,13.858c5.605,2.321,12.057,1.038,16.347-3.252
				l31.819-31.82l31.819,31.82c2.813,2.813,6.628,4.394,10.607,4.394c3.978,0,7.793-1.58,10.606-4.394l31.82-31.82l31.82,31.82
				c2.813,2.813,6.628,4.394,10.606,4.394c3.979,0,7.794-1.581,10.606-4.394l31.819-31.82l31.819,31.82
				c2.869,2.87,6.706,4.394,10.609,4.394c1.933,0,3.882-0.373,5.737-1.142c5.605-2.322,9.26-7.792,9.26-13.858V15
				C307.28,6.716,300.564,0,292.28,0z M277.282,278.786h-0.002l-16.819-16.819c-2.813-2.813-6.628-4.394-10.607-4.394
				c-3.979,0-7.794,1.581-10.606,4.394l-31.819,31.82l-31.82-31.82c-2.929-2.929-6.767-4.394-10.606-4.394
				s-7.678,1.464-10.606,4.394l-31.82,31.82l-31.819-31.82c-2.813-2.813-6.628-4.394-10.607-4.394s-7.794,1.581-10.607,4.394
				l-16.819,16.819V30h224.557V278.786z"/>
			<path d="M97.723,100H232.28c8.284,0,15-6.716,15-15s-6.716-15-15-15H97.723c-8.284,0-15,6.716-15,15S89.439,100,97.723,100z"/>
			<path d="M97.723,160h54.557c8.284,0,15-6.716,15-15s-6.716-15-15-15H97.723c-8.284,0-15,6.716-15,15S89.439,160,97.723,160z"/>
			<path d="M97.723,220h54.557c8.284,0,15-6.716,15-15s-6.716-15-15-15H97.723c-8.284,0-15,6.716-15,15S89.439,220,97.723,220z"/>
		</g>
	</g>
</g>
<g>
</g>
<g>
</g>
<g>
</g>
<g>
</g>
<g>
</g>
<g>
</g>
<g>
</g>
<g>
</g>
<g>
</g>
<g>
</g>
<g>
</g>
<g>
</g>
<g>
</g>
<g>
</g>
<g>
</g>
</svg>
