<?xml version="1.0" encoding="iso-8859-1"?>
<!-- Generator: Adobe Illustrator 18.0.0, SVG Export Plug-In . SVG Version: 6.00 Build 0)  -->
<!DOCTYPE svg PUBLIC "-//W3C//DTD SVG 1.1//EN" "http://www.w3.org/Graphics/SVG/1.1/DTD/svg11.dtd">
<svg xmlns="http://www.w3.org/2000/svg" xmlns:xlink="http://www.w3.org/1999/xlink" version="1.1" id="Capa_1" x="0px" y="0px" viewBox="0 0 320 320" style="enable-background:new 0 0 320 320;" xml:space="preserve" width="512px" height="512px">
<g>
	<path d="M115.607,205.807c19.539,7.357,28.832-1.305,28.832-1.305c1.936-1.805,1.657-4.385-0.621-5.734l-38.49-22.795   c-2.278-1.35-4.578-0.332-5.11,2.262C100.218,178.234,96.068,198.447,115.607,205.807z" fill="#FFFFFF"/>
	<path d="M204.393,205.807c19.539-7.359,15.39-27.572,15.39-27.572c-0.532-2.594-2.832-3.611-5.11-2.262l-38.49,22.795   c-2.278,1.35-2.558,3.93-0.621,5.734C175.56,204.502,184.854,213.164,204.393,205.807z" fill="#FFFFFF"/>
	<path d="M310,133.43h-48.102c-1.988-9-3.763-18.439-5.489-27.641c-8.203-43.728-16.687-88.943-50.908-88.943   c-13.464,0-21.709,6.311-28.335,11.382c-5.724,4.381-9.858,7.546-17.165,7.546s-11.442-3.165-17.166-7.546   c-6.625-5.071-14.871-11.382-28.334-11.382c-34.221,0-42.704,45.214-50.908,88.939c-1.727,9.203-3.502,18.643-5.491,27.645H10   c-5.522,0-10,4.478-10,10s4.478,10,10,10h47.665v47.389c0,56.429,45.907,102.336,102.335,102.336s102.335-45.907,102.335-102.336   V153.43H310c5.522,0,10-4.478,10-10S315.522,133.43,310,133.43z M83.25,109.474c6.699-35.706,13.627-72.628,31.251-72.628   c6.688,0,10.669,3.047,16.179,7.264c6.789,5.196,15.239,11.664,29.321,11.664s22.531-6.467,29.321-11.664   c5.51-4.217,9.49-7.264,16.179-7.264c17.625,0,24.552,36.924,31.251,72.631c1.486,7.923,3.009,16.019,4.685,23.953H78.563   C80.24,125.494,81.763,117.397,83.25,109.474z M242.335,200.818c0,45.4-36.936,82.336-82.335,82.336s-82.335-36.936-82.335-82.336   V153.43h164.67V200.818z" fill="#FFFFFF"/>
</g>
<g>
</g>
<g>
</g>
<g>
</g>
<g>
</g>
<g>
</g>
<g>
</g>
<g>
</g>
<g>
</g>
<g>
</g>
<g>
</g>
<g>
</g>
<g>
</g>
<g>
</g>
<g>
</g>
<g>
</g>
</svg>
