<?xml version="1.0" encoding="iso-8859-1"?>
<!-- Generator: Adobe Illustrator 19.0.0, SVG Export Plug-In . SVG Version: 6.00 Build 0)  -->
<svg version="1.1" id="Layer_1" xmlns="http://www.w3.org/2000/svg" xmlns:xlink="http://www.w3.org/1999/xlink" x="0px" y="0px"
	 viewBox="0 0 459 459" style="enable-background:new 0 0 459 459;" xml:space="preserve">
<g>
	<g>
		<g>
			<path d="M222.222,243.832c-17.099,0-26.864,5.982-26.864,23.463c0,12.699,6.684,19.043,20.063,19.043
				c14.774,0,25.896-2.879,36.045-12.242c5.547-5.127,4.42-9.324,4.42-23.803C248.972,247.527,235.288,243.832,222.222,243.832z"/>
			<path d="M229.5,0C102.751,0,0,102.751,0,229.5S102.751,459,229.5,459S459,356.249,459,229.5S356.249,0,229.5,0z M325.937,315.412
				c-15.447,7.722-52.227,8.757-57.468-20.233c-15.821,14.894-36.824,21.423-57.468,21.423c-35.614,0-52.707-19.728-52.707-48.967
				c0-35.643,27.133-52.367,63.249-52.367c11.553,0,23.928,1.44,34.685,6.801c0-22.875-12.823-30.944-36.045-30.944
				c-15.29,0-32.269,3.574-43.186,13.942l-10.882-32.985c17.926-12.263,38.98-16.662,60.529-16.662
				c16.322,0,29.016,2.381,38.085,7.141c26.17,13.744,28.904,35.617,28.904,65.289c0,28.632-3.442,64.949,16.662,64.949
				c5.441,0,9.691-2.152,12.751-6.461c9.118-12.821,11.052-32.547,11.052-48.287c0-61.275-41.824-104.735-107.115-104.735
				c-64.07,0-104.735,42.36-104.735,103.374c0,58.505,37.394,103.715,99.294,103.715c24.919,0,40.839-8.186,53.727-12.922
				l6.801,23.124c-19.918,9.259-41.61,13.602-61.549,13.602c-68.388,0-123.437-50.263-123.437-128.198
				c0-77.78,56.122-126.498,131.939-126.498c73.181,0,129.898,46.096,129.898,129.898
				C358.921,268.354,351.923,302.418,325.937,315.412z"/>
		</g>
	</g>
</g>
<g>
</g>
<g>
</g>
<g>
</g>
<g>
</g>
<g>
</g>
<g>
</g>
<g>
</g>
<g>
</g>
<g>
</g>
<g>
</g>
<g>
</g>
<g>
</g>
<g>
</g>
<g>
</g>
<g>
</g>
</svg>
