<?xml version="1.0" encoding="iso-8859-1"?>
<!-- Generator: Adobe Illustrator 19.0.0, SVG Export Plug-In . SVG Version: 6.00 Build 0)  -->
<svg xmlns="http://www.w3.org/2000/svg" xmlns:xlink="http://www.w3.org/1999/xlink" version="1.1" id="Layer_1" x="0px" y="0px" viewBox="0 0 512 512" style="enable-background:new 0 0 512 512;" xml:space="preserve" width="512px" height="512px">
<g>
	<g>
		<path d="M502.691,93.091c5.141,0,9.309-4.168,9.309-9.309V9.309C512,4.168,507.832,0,502.691,0h-74.473    c-5.141,0-9.309,4.168-9.309,9.309v27.927H307.2V9.309c0-5.141-4.168-9.309-9.309-9.309h-74.473c-5.141,0-9.309,4.168-9.309,9.309    v27.927H93.091V9.309C93.091,4.168,88.923,0,83.782,0H9.309C4.168,0,0,4.168,0,9.309v74.473c0,5.141,4.168,9.309,9.309,9.309    h27.927v121.018H9.309c-5.141,0-9.309,4.168-9.309,9.309v74.473c0,5.141,4.168,9.309,9.309,9.309h27.927v111.709H9.309    c-5.141,0-9.309,4.168-9.309,9.309v74.473C0,507.832,4.168,512,9.309,512h74.473c5.141,0,9.309-4.168,9.309-9.309v-27.927h121.018    v27.927c0,5.141,4.168,9.309,9.309,9.309h74.473c5.141,0,9.309-4.168,9.309-9.309v-27.927h111.709v27.927    c0,5.141,4.168,9.309,9.309,9.309h74.473c5.141,0,9.309-4.168,9.309-9.309v-74.473c0-5.141-4.168-9.309-9.309-9.309h-27.927V307.2    h27.927c5.141,0,9.309-4.168,9.309-9.309v-74.473c0-5.141-4.168-9.309-9.309-9.309h-27.927V93.091H502.691z M232.727,18.618    h55.855v55.854h-55.855V18.618z M18.618,74.473V18.618h55.854v55.854H18.618z M18.618,288.582v-55.855h55.854v55.855H18.618z     M74.473,493.382H18.618v-55.855h55.854V493.382z M288.582,493.382h-55.855v-55.855h55.855V493.382z M418.909,428.218v27.927    H307.2v-27.927c0-5.141-4.168-9.309-9.309-9.309h-74.473c-5.141,0-9.309,4.168-9.309,9.309v27.927H93.091v-27.927    c0-5.141-4.168-9.309-9.309-9.309H55.855V307.2h27.927c5.141,0,9.309-4.168,9.309-9.309v-74.473c0-5.141-4.168-9.309-9.309-9.309    H55.855V93.091h27.927c5.141,0,9.309-4.168,9.309-9.309V55.855h121.018v27.927c0,5.141,4.168,9.309,9.309,9.309h74.473    c5.141,0,9.309-4.168,9.309-9.309V55.855h111.709v27.927c0,5.141,4.168,9.309,9.309,9.309h27.927v121.018h-27.927    c-5.141,0-9.309,4.168-9.309,9.309v74.473c0,5.141,4.168,9.309,9.309,9.309h27.927v111.709h-27.927    C423.077,418.909,418.909,423.077,418.909,428.218z M493.382,437.527v55.855h-55.855v-55.855H493.382z M493.382,232.727v55.855    h-55.855v-55.855H493.382z M437.527,74.473V18.618h55.855v55.854H437.527z" fill="#FFFFFF"/>
	</g>
</g>
<g>
</g>
<g>
</g>
<g>
</g>
<g>
</g>
<g>
</g>
<g>
</g>
<g>
</g>
<g>
</g>
<g>
</g>
<g>
</g>
<g>
</g>
<g>
</g>
<g>
</g>
<g>
</g>
<g>
</g>
</svg>
